<svg xmlns="http://www.w3.org/2000/svg" xmlns:xlink="http://www.w3.org/1999/xlink" preserveAspectRatio="xMidYMid" width="65" height="64" viewBox="0 0 65 64">
  <defs>
    <style>
      .cls-1 {
        stroke: #81ca00;
        stroke-linecap: round;
        stroke-linejoin: round;
        stroke-width: 2px;
        fill: none;
        fill-rule: evenodd;
      }
    </style>
  </defs>
  <path d="M62.458,55.074 C61.821,53.627 60.328,52.789 58.828,53.037 C58.551,53.083 58.280,53.164 58.021,53.280 C56.311,54.044 55.515,56.058 56.208,57.866 L57.326,60.780 C57.922,62.336 59.442,63.241 61.022,62.980 C61.299,62.935 61.570,62.853 61.829,62.737 L61.967,62.675 C62.816,62.296 63.467,61.590 63.798,60.688 C64.130,59.787 64.099,58.806 63.712,57.926 L62.458,55.074 Z" class="cls-1"/>
  <path d="M5.000,55.000 L49.000,55.000 L52.500,63.000 L1.500,63.000 L5.000,55.000 Z" class="cls-1"/>
  <path d="M18.000,49.000 L47.000,49.000 " class="cls-1"/>
  <path d="M39.000,43.000 L39.000,49.000 " class="cls-1"/>
  <path d="M27.000,43.000 L27.000,49.000 " class="cls-1"/>
  <path d="M1.000,1.000 L64.000,1.000 L64.000,43.000 L1.000,43.000 L1.000,1.000 Z" class="cls-1"/>
  <path d="M1.000,38.000 L64.000,38.000 " class="cls-1"/>
  <path d="M33.247,21.386 L37.601,26.012 " class="cls-1"/>
  <path d="M27.389,15.767 L30.505,24.039 L35.533,19.000 L27.389,15.767 Z" class="cls-1"/>
</svg>
