<svg xmlns="http://www.w3.org/2000/svg" xmlns:xlink="http://www.w3.org/1999/xlink" preserveAspectRatio="xMidYMid" width="48" height="72" viewBox="0 0 48 72">
  <defs>
    <style>
      .cls-1 {
        stroke: #81ca00;
        stroke-linecap: round;
        stroke-linejoin: round;
        stroke-width: 2px;
        fill: none;
        fill-rule: evenodd;
      }
    </style>
  </defs>
  <g>
    <path d="M6.000,1.000 L47.000,1.000 L47.000,54.000 L6.000,54.000 L6.000,1.000 Z" class="cls-1"/>
    <path d="M9.000,60.000 L16.000,60.000 L16.000,69.000 L12.500,71.000 L9.000,69.000 L9.000,60.000 Z" class="cls-1"/>
    <path d="M9.000,66.000 C9.000,66.000 8.206,66.000 7.000,66.000 C3.686,66.000 1.000,63.314 1.000,60.000 C1.000,56.686 3.686,54.000 7.000,54.000 C10.314,54.000 36.210,54.000 47.000,54.000 C44.902,54.000 42.000,56.686 42.000,60.000 C42.000,63.314 44.821,66.000 47.000,66.000 C42.938,66.000 16.000,66.000 16.000,66.000 " class="cls-1"/>
    <path d="M6.000,1.000 C3.239,1.000 1.000,3.239 1.000,6.000 C1.000,8.761 1.000,60.000 1.000,60.000 " class="cls-1"/>
    <path d="M21.969,23.000 L25.000,23.000 L25.000,16.000 L14.000,16.000 L14.000,23.000 L17.000,23.000 L17.000,38.000 L20.000,41.000 L33.000,41.000 L36.000,38.000 L36.000,23.000 L39.000,23.000 L39.000,16.000 L28.000,16.000 L28.000,23.000 L31.000,23.000 L31.000,35.000 L22.000,35.000 L21.969,23.000 Z" class="cls-1"/>
  </g>
</svg>
