<svg xmlns="http://www.w3.org/2000/svg" xmlns:xlink="http://www.w3.org/1999/xlink" preserveAspectRatio="xMidYMid" width="52" height="76" viewBox="0 0 52 76">
  <defs>
    <style>
      .cls-1 {
        stroke: #81ca00;
        stroke-linecap: round;
        stroke-linejoin: round;
        stroke-width: 2px;
        fill: none;
        fill-rule: evenodd;
      }
    </style>
  </defs>
  <g>
    <path d="M1.000,75.000 C1.000,75.000 1.000,16.129 1.000,26.000 C1.000,12.193 12.193,1.000 26.000,1.000 C39.807,1.000 51.000,12.193 51.000,26.000 C51.000,39.807 51.000,75.000 51.000,75.000 " class="cls-1"/>
    <path d="M46.000,29.000 C46.000,40.046 37.046,49.000 26.000,49.000 C14.954,49.000 6.000,40.046 6.000,29.000 C21.888,29.000 23.000,18.000 23.000,18.000 C23.000,18.000 27.774,29.000 46.000,29.000 Z" class="cls-1"/>
    <path d="M35.500,33.000 C35.224,33.000 35.000,32.776 35.000,32.500 C35.000,32.224 35.224,32.000 35.500,32.000 C35.776,32.000 36.000,32.224 36.000,32.500 C36.000,32.776 35.776,33.000 35.500,33.000 ZM16.500,33.000 C16.224,33.000 16.000,32.776 16.000,32.500 C16.000,32.224 16.224,32.000 16.500,32.000 C16.776,32.000 17.000,32.224 17.000,32.500 C17.000,32.776 16.776,33.000 16.500,33.000 Z" class="cls-1"/>
    <path d="M22.000,38.000 C22.000,38.000 23.012,39.500 26.000,39.500 C28.980,39.500 30.000,38.000 30.000,38.000 " class="cls-1"/>
    <path d="M39.000,44.000 C45.627,44.000 51.000,49.373 51.000,56.000 " class="cls-1"/>
    <path d="M13.000,44.000 C6.373,44.000 1.000,49.373 1.000,56.000 " class="cls-1"/>
    <path d="M26.000,75.000 L26.000,59.000 " class="cls-1"/>
    <path d="M19.000,48.000 L26.000,59.000 L33.000,48.000 " class="cls-1"/>
    <path d="M37.000,61.000 L43.000,61.000 " class="cls-1"/>
  </g>
</svg>
