<svg xmlns="http://www.w3.org/2000/svg" xmlns:xlink="http://www.w3.org/1999/xlink" preserveAspectRatio="xMidYMid" width="54" height="72" viewBox="0 0 54 72">
  <defs>
    <style>
      .cls-1 {
        stroke: #81ca00;
        stroke-linecap: round;
        stroke-linejoin: round;
        stroke-width: 2px;
        fill: none;
        fill-rule: evenodd;
      }
    </style>
  </defs>
  <g>
    <path d="M47.000,26.000 L47.000,71.000 L7.000,71.000 L7.000,26.000 " class="cls-1"/>
    <path d="M21.000,71.000 L21.000,62.000 L33.000,62.000 L33.000,71.000 " class="cls-1"/>
    <path d="M27.000,62.000 L27.000,71.000 " class="cls-1"/>
    <path d="M35.000,48.000 L41.000,48.000 L41.000,56.000 L35.000,56.000 L35.000,48.000 Z" class="cls-1"/>
    <path d="M24.000,48.000 L30.000,48.000 L30.000,56.000 L24.000,56.000 L24.000,48.000 Z" class="cls-1"/>
    <path d="M13.000,48.000 L19.000,48.000 L19.000,56.000 L13.000,56.000 L13.000,48.000 Z" class="cls-1"/>
    <path d="M35.000,34.000 L41.000,34.000 L41.000,42.000 L35.000,42.000 L35.000,34.000 Z" class="cls-1"/>
    <path d="M24.000,34.000 L30.000,34.000 L30.000,42.000 L24.000,42.000 L24.000,34.000 Z" class="cls-1"/>
    <path d="M13.000,34.000 L19.000,34.000 L19.000,42.000 L13.000,42.000 L13.000,34.000 Z" class="cls-1"/>
    <path d="M1.000,29.000 L27.000,16.000 L53.000,29.000 " class="cls-1"/>
    <path d="M27.000,16.000 L27.000,1.000 L15.000,4.000 L15.000,12.000 L27.000,9.000 " class="cls-1"/>
  </g>
</svg>
