<svg xmlns="http://www.w3.org/2000/svg" xmlns:xlink="http://www.w3.org/1999/xlink" preserveAspectRatio="xMidYMid" width="67" height="62" viewBox="0 0 67 62">
  <defs>
    <style>
      .cls-1 {
        stroke: #81ca00;
        stroke-linecap: round;
        stroke-linejoin: round;
        stroke-width: 2px;
        fill: none;
        fill-rule: evenodd;
      }
    </style>
  </defs>
  <path d="M26.000,58.000 L66.000,58.000 " class="cls-1"/>
  <path d="M26.000,53.000 L58.000,53.000 " class="cls-1"/>
  <path d="M26.000,48.000 L66.000,48.000 " class="cls-1"/>
  <path d="M3.000,45.000 L15.000,45.000 C16.105,45.000 17.000,45.895 17.000,47.000 L17.000,59.000 C17.000,60.105 16.105,61.000 15.000,61.000 L3.000,61.000 C1.895,61.000 1.000,60.105 1.000,59.000 L1.000,47.000 C1.000,45.895 1.895,45.000 3.000,45.000 Z" class="cls-1"/>
  <path d="M26.000,36.000 L66.000,36.000 " class="cls-1"/>
  <path d="M26.000,31.000 L58.000,31.000 " class="cls-1"/>
  <path d="M26.000,26.000 L66.000,26.000 " class="cls-1"/>
  <path d="M3.000,23.000 L15.000,23.000 C16.105,23.000 17.000,23.895 17.000,25.000 L17.000,37.000 C17.000,38.105 16.105,39.000 15.000,39.000 L3.000,39.000 C1.895,39.000 1.000,38.105 1.000,37.000 L1.000,25.000 C1.000,23.895 1.895,23.000 3.000,23.000 Z" class="cls-1"/>
  <path d="M4.496,31.662 L6.974,34.636 L13.063,26.493 " class="cls-1"/>
  <path d="M26.000,14.000 L66.000,14.000 " class="cls-1"/>
  <path d="M26.000,9.000 L58.000,9.000 " class="cls-1"/>
  <path d="M26.000,4.000 L66.000,4.000 " class="cls-1"/>
  <path d="M3.000,1.000 L15.000,1.000 C16.105,1.000 17.000,1.895 17.000,3.000 L17.000,15.000 C17.000,16.105 16.105,17.000 15.000,17.000 L3.000,17.000 C1.895,17.000 1.000,16.105 1.000,15.000 L1.000,3.000 C1.000,1.895 1.895,1.000 3.000,1.000 Z" class="cls-1"/>
  <path d="M4.496,9.662 L6.974,12.636 L13.063,4.493 " class="cls-1"/>
</svg>
