<svg xmlns="http://www.w3.org/2000/svg" xmlns:xlink="http://www.w3.org/1999/xlink" preserveAspectRatio="xMidYMid" width="52" height="67" viewBox="0 0 52 67">
  <defs>
    <style>
      .cls-1, .cls-2 {
        stroke: #81ca00;
        stroke-linecap: round;
        stroke-linejoin: round;
        stroke-width: 2px;
        fill: none;
      }

      .cls-1 {
        fill-rule: evenodd;
      }
    </style>
  </defs>
  <path d="M1.000,1.000 L51.000,1.000 L51.000,66.000 L1.000,66.000 L1.000,1.000 Z" class="cls-1"/>
  <path d="M10.000,61.000 L42.000,61.000 " class="cls-1"/>
  <path d="M46.000,10.000 L46.000,57.000 " class="cls-1"/>
  <path d="M6.000,10.000 L6.000,57.000 " class="cls-1"/>
  <path d="M10.000,6.000 L42.000,6.000 " class="cls-1"/>
  <path d="M41.000,66.000 C41.000,60.477 45.477,56.000 51.000,56.000 " class="cls-1"/>
  <path d="M11.000,66.000 C11.000,60.477 6.523,56.000 1.000,56.000 " class="cls-1"/>
  <path d="M41.000,1.000 C41.000,6.523 45.477,11.000 51.000,11.000 " class="cls-1"/>
  <path d="M11.000,1.000 C11.000,6.523 6.523,11.000 1.000,11.000 " class="cls-1"/>
  <path d="M36.000,47.000 L40.000,47.000 " class="cls-1"/>
  <circle cx="26" cy="47" r="5" class="cls-2"/>
  <path d="M12.000,47.000 L16.000,47.000 " class="cls-1"/>
  <path d="M14.000,32.000 L38.000,32.000 " class="cls-1"/>
  <path d="M13.000,27.000 L39.000,27.000 " class="cls-1"/>
  <path d="M18.000,19.000 L34.000,19.000 " class="cls-1"/>
</svg>
